<svg width="850" height="974" viewBox="0 0 850 974" fill="none" xmlns="http://www.w3.org/2000/svg">
<path d="M850 484L53.3265 484C53.3265 484 -7.88519 575.604 0.854065 637.187C13.8395 728.693 64.931 779.233 190.562 819.42C239.656 835.124 253.51 932.986 300.048 949.928C372.601 976.34 596.677 895.494 646.165 906.16C727.396 923.667 850 974 850 974L850 484Z" fill="#E5E9F0"/>
<path d="M850 497H53.3265C53.3265 497 44.5873 378.083 53.3265 316.5C66.312 224.995 139.739 175.812 231 143C339.326 104.052 412.501 230.024 521.5 193C619.95 159.559 611.473 33.5534 712 7C764.105 -6.76315 850 7 850 7V497Z" fill="#E5E9F0"/>
</svg>
