<svg width="949" height="1232" viewBox="0 0 949 1232" fill="none" xmlns="http://www.w3.org/2000/svg">
<path d="M0 616H889.463C889.463 616 957.804 500.841 948.047 423.422C933.549 308.386 876.507 244.849 736.243 194.329C681.431 174.586 665.964 51.5607 614.005 30.2623C533.002 -2.94165 282.828 98.6929 227.576 85.2846C136.884 63.2757 0 0 0 0V616Z" fill="#D0CCCC"/>
<path d="M0 616L889.463 616C889.463 616 957.804 731.159 948.047 808.578C933.549 923.614 876.507 987.151 736.243 1037.67C681.431 1057.41 665.964 1180.44 614.005 1201.74C533.002 1234.94 282.828 1133.31 227.576 1146.72C136.884 1168.72 0 1232 0 1232L0 616Z" fill="#D0CCCC"/>
</svg>
