<svg width="537" height="162" viewBox="0 0 537 162" fill="none" xmlns="http://www.w3.org/2000/svg">
<path d="M5.5 65C18.1833 49.8627 60 97.5 60 97.5C60 97.5 93.5686 160.164 128.5 156C163.842 151.787 146.71 71.9617 181 81.5C181 81.5 210.872 103.772 230 97.5C249.304 91.1698 260 55 260 55C283.528 37.2255 292.697 18.774 321 10.5C344.427 3.65133 360.251 3.07004 383.5 10.5C403.157 16.7822 411.536 26.5577 428 39C440.487 48.4366 442.888 63.8831 458.5 65C469.533 65.7894 475.891 61.2756 485 55C496.578 47.023 493.859 31.4998 507 26.5C515.942 23.0977 522.558 23.0977 531.5 26.5" stroke="#2E3440" stroke-width="10" stroke-linecap="round"/>
</svg>
