<svg width="665" height="851" viewBox="0 0 665 851" fill="none" xmlns="http://www.w3.org/2000/svg">
<path d="M199.832 104.623C159.844 180.431 160.495 228.239 97.461 266.55C61.043 288.684 36.9292 315.567 30.4265 364.179C26.3718 394.49 30.8466 413.479 41.1308 441.04C51.4639 468.732 75.7644 471.31 81.6504 500.996C90.3918 545.082 40.5117 561.755 39.5991 607.403C38.4085 666.954 64.4433 703.319 104.991 735.244C142.359 764.666 175.716 742.076 218.062 759.421C264.469 778.431 279.534 823.445 328.311 831.173C386.615 840.41 418.484 803.492 473.813 776.669C515.285 756.564 545.479 755.792 577.396 717.446C620.853 665.234 632.549 610.479 626.328 537.728C621.22 477.986 575.256 460.552 571.247 400.651C568.151 354.377 594.624 329.435 590.788 283.267C586.906 236.534 502.615 217.402 477.043 182.905C430.268 119.805 489.814 46.8023 407.611 28.7814C320.693 9.72673 248.395 12.5587 199.832 104.623Z" fill="white" fill-opacity="0.8"/>
<g filter="url(#filter0_d_46_7)">
<path d="M278.588 154.006L281.833 161.891C281.903 162.062 281.995 162.225 282.106 162.374L284.981 166.235C285.112 166.411 285.268 166.566 285.444 166.697L290.596 170.505C290.707 170.586 290.825 170.658 290.949 170.718L299.922 175.069L269.375 193.067C267.589 194.119 265.456 192.384 266.126 190.424L271.381 175.069L278.588 154.006Z" fill="#2E3440"/>
<path fill-rule="evenodd" clip-rule="evenodd" d="M377.675 71.202C365.438 66.2181 351.993 69.9936 343.835 79.5087C346.856 78.451 350.029 77.998 353.353 77.998C364.069 77.998 373.442 83.6906 378.681 92.2037H347.165C345.557 87.8236 342.885 83.7725 339.171 80.4498C326.979 69.3908 308.165 70.4518 297.177 82.7229L297.177 82.7225C294.313 85.9533 292.259 89.6245 291.009 93.4846C282.35 96.5566 276.149 104.812 276.149 114.515V149.321C276.149 156.775 279.81 163.376 285.433 167.428C292.492 176.432 304.035 180.435 314.974 178.133C311.958 177.226 309.092 175.714 306.529 173.597V173.596C305.731 172.973 304.973 172.317 304.255 171.632H318.369C318.371 173.803 318.608 176.011 319.098 178.229C322.885 194.224 338.938 204.184 354.992 200.562C367.867 197.545 376.802 186.83 378.014 174.456C376.044 176.872 373.773 179.135 371.046 181.097L371.046 181.097C357.416 190.453 338.787 187.133 329.397 173.703C328.92 173.025 328.477 172.334 328.065 171.632H395.661C407.998 171.632 418 161.643 418 149.321V114.515C418 102.193 407.998 92.2037 395.661 92.2037H395.566C393.449 83.0177 387.042 75.0031 377.675 71.2015L377.675 71.202ZM328.065 171.632C324.812 166.078 323.575 159.812 324.247 153.783C320.494 158.882 318.364 165.087 318.369 171.632H328.065ZM304.255 171.632C293.31 161.181 291.768 143.919 301.25 131.716C305.775 125.82 311.958 122.191 318.593 120.83C310.601 118.11 301.552 118.715 293.71 123.251C279.533 131.567 274.858 149.86 283.153 164.072C283.847 165.257 284.61 166.377 285.433 167.428C289.105 170.073 293.614 171.632 298.488 171.632H304.255ZM308.464 92.2037C302.528 95.5553 297.713 100.954 295.22 107.871C294.016 111.052 293.564 114.233 293.414 117.415C289.268 110.087 288.451 101.39 291.009 93.4846C293.347 92.6553 295.865 92.2037 298.488 92.2037H308.464ZM308.464 92.2037C315.789 88.0676 324.821 87.0496 333.301 90.1457C334.851 90.7222 336.319 91.4128 337.701 92.2037H308.464ZM337.701 92.2037H347.165C348.489 95.8128 349.091 99.6452 348.955 103.478C346.268 98.8922 342.494 94.9451 337.701 92.2037ZM395.566 92.2037C396.898 97.9801 396.533 104.22 394.142 110.166C390.667 118.623 383.869 124.514 375.863 127.232C380.395 121.946 383.114 115.302 383.114 107.901C383.114 102.152 381.492 96.7719 378.681 92.2037H395.566ZM401.355 122.89C400.295 119.722 398.779 116.856 396.96 114.292L396.96 114.292C408.481 119.119 416.059 130.884 414.997 144.006C413.784 160.296 399.384 172.664 382.863 171.307C373.768 170.553 366.038 165.877 361.036 159.09C367.402 161.805 374.526 162.257 381.65 160.146C397.415 155.319 406.206 138.576 401.355 122.89ZM354.799 106.037C353.222 106.037 352.053 106.241 350.824 106.456C349.463 106.694 348.029 106.945 345.885 106.945C343.741 106.945 342.307 106.694 340.945 106.456C339.717 106.241 338.548 106.037 336.971 106.037C334.252 106.037 330.625 108.761 328.963 110.579C326.848 112.849 322.467 123.145 322.617 126.475C322.768 131.623 328.66 138.587 328.66 138.587C328.66 138.587 331.984 144.188 332.74 146.308C333.647 148.427 334.1 150.244 334.1 151.607C334.251 152.97 337.424 161.146 345.734 161.146C354.044 161.146 357.217 152.818 357.368 151.607C357.519 150.245 357.972 148.428 358.728 146.308C359.634 144.188 362.808 138.587 362.808 138.587C362.808 138.587 368.7 131.623 368.851 126.475C369.002 123.145 364.771 113.001 362.505 110.579C361.144 108.761 357.518 106.037 354.799 106.037ZM339.388 131.016C338.784 130.562 338.028 128.897 337.726 127.686C337.272 126.171 335.61 125.112 333.948 125.112C332.136 125.112 329.869 124.204 328.66 122.993C327.601 121.781 328.66 121.024 331.077 121.176C333.495 121.327 336.517 122.387 337.423 123.447C338.481 124.507 339.538 126.928 339.841 128.746C340.143 130.411 339.992 131.319 339.388 131.016ZM345.884 152.665C342.56 152.665 340.747 152.211 341.654 151.757C342.584 151.358 343.629 150.724 344.382 150.268C344.486 150.206 344.584 150.146 344.675 150.091C345.279 149.637 346.337 149.637 347.093 150.091C347.697 150.545 349.057 151.303 350.114 151.757C351.022 152.363 349.208 152.665 345.884 152.665ZM350.569 141.917C349.511 142.522 348.151 144.036 347.395 145.247C346.64 146.458 345.28 146.458 344.524 145.247C343.769 144.036 342.258 142.523 341.351 141.917C340.293 141.311 339.386 140.251 339.236 139.646C339.085 138.889 340.444 138.889 342.409 139.495C344.374 140.1 347.546 140.1 349.51 139.495C351.475 138.89 352.985 138.89 352.684 139.646C352.532 140.251 351.475 141.31 350.569 141.917ZM363.26 122.841C362.051 124.052 359.785 124.81 357.971 124.81C356.159 124.659 354.497 125.87 354.043 127.232C353.741 128.746 352.985 130.26 352.381 130.563C351.777 131.017 351.626 129.958 351.928 128.14C352.381 126.324 353.439 123.901 354.647 122.993C355.705 121.933 358.575 121.025 360.993 120.874C363.411 121.024 364.469 121.932 363.26 122.841Z" fill="#2E3440"/>
</g>
<defs>
<filter id="filter0_d_46_7" x="246" y="53" width="192" height="172.306" filterUnits="userSpaceOnUse" color-interpolation-filters="sRGB">
<feFlood flood-opacity="0" result="BackgroundImageFix"/>
<feColorMatrix in="SourceAlpha" type="matrix" values="0 0 0 0 0 0 0 0 0 0 0 0 0 0 0 0 0 0 127 0" result="hardAlpha"/>
<feOffset dy="4"/>
<feGaussianBlur stdDeviation="10"/>
<feComposite in2="hardAlpha" operator="out"/>
<feColorMatrix type="matrix" values="0 0 0 0 0 0 0 0 0 0 0 0 0 0 0 0 0 0 0.25 0"/>
<feBlend mode="normal" in2="BackgroundImageFix" result="effect1_dropShadow_46_7"/>
<feBlend mode="normal" in="SourceGraphic" in2="effect1_dropShadow_46_7" result="shape"/>
</filter>
</defs>
</svg>
