<svg width="957" height="925" viewBox="0 0 957 925" fill="none" xmlns="http://www.w3.org/2000/svg">
<path d="M278.802 732.16C360.718 740.82 399.766 719.964 462.046 767.907C498.028 795.606 531.921 808.782 575.118 794.864C602.053 786.186 615.506 773.614 633.185 751.511C650.949 729.302 641.223 703.493 662.795 684.967C694.833 657.454 732.883 701.154 770.914 682.801C820.528 658.86 837.776 617.015 844.292 562.282C850.298 511.841 815.433 487.449 809.068 437.045C802.092 381.806 831.811 347.468 814.39 294.583C793.568 231.37 747.631 214.543 698.567 169.587C661.792 135.89 646.433 105.5 599.298 89.2277C535.117 67.0716 484.329 78.3008 427.46 115.357C380.761 145.787 388.817 199.91 341.45 229.289C304.858 251.984 271.412 235.587 235.269 258.99C198.682 282.678 224.029 376.507 208.093 417.092C178.944 491.328 89.8 461.586 115.043 552.822C141.734 649.291 179.318 721.643 278.802 732.16Z" fill="#4C566A" fill-opacity="0.2"/>
<path fill-rule="evenodd" clip-rule="evenodd" d="M496.331 178.532C502.161 163.055 517.077 152 534.611 152C553.891 152 570.06 165.358 574.4 183.282C584.179 184.861 592.401 190.931 596.846 199.387H600.732C616.156 199.387 628.573 211.789 628.573 227.194C628.573 242.598 616.156 255 600.732 255H483.28C462.073 255 445 237.948 445 216.766C445 196.246 461.026 179.552 481.308 178.532H496.331ZM508.05 199.854C504.784 194.13 505.421 186.814 510.042 181.646C515.857 175.206 525.815 174.649 532.268 180.453C535.852 183.634 537.605 188.087 537.445 192.539C535.613 189.438 532.826 186.894 529.161 185.542C521.035 182.601 511.954 186.735 509.006 194.845C508.369 196.515 508.13 198.184 508.05 199.854ZM552.894 175.591C546.344 172.957 539.146 174.953 534.779 179.982C536.396 179.423 538.095 179.184 539.874 179.184C548.689 179.184 555.806 186.288 555.806 194.99C555.806 198.901 554.351 202.413 551.924 205.208C556.211 203.771 559.85 200.657 561.71 196.187C565.026 188.045 561.063 178.864 552.895 175.591L552.894 175.591ZM512.298 207.8C506.997 214.665 508.263 224.562 515.068 229.91V229.91C516.412 231.028 517.916 231.826 519.498 232.305C513.09 233.662 506.285 230.868 502.804 224.882C498.453 217.379 500.905 207.721 508.342 203.331C512.456 200.937 517.204 200.617 521.396 202.053C517.916 202.772 514.672 204.687 512.298 207.8ZM549.171 233.874C541.985 238.879 532.162 237.103 527.211 229.917C524.975 226.688 524.096 222.893 524.496 219.259C521.86 222.893 520.742 227.576 521.781 232.339C523.777 240.897 532.242 246.227 540.707 244.289C547.495 242.674 552.207 236.941 552.845 230.321C551.807 231.613 550.609 232.824 549.172 233.874H549.171ZM565.606 203.049C565.041 201.379 564.235 199.868 563.267 198.517L563.267 198.516C569.398 201.061 573.432 207.263 572.867 214.181C572.221 222.769 564.557 229.289 555.764 228.573C550.923 228.176 546.809 225.711 544.147 222.133C547.535 223.564 551.327 223.803 555.118 222.69C563.508 220.145 568.188 211.319 565.606 203.049Z" fill="#4C566A"/>
</svg>
