<svg width="636" height="83" viewBox="0 0 636 83" fill="none" xmlns="http://www.w3.org/2000/svg">
<path d="M630.5 39.4999C630.5 39.4999 594.375 76.0333 565 76.4999C534.772 76.9801 526.769 44.7698 497 39.4999C480.657 36.6068 465.882 60.6622 449.5 57.9999C425.912 54.1667 410.878 49.7769 388 39.4999C362.208 27.9141 364 2 334 15.9999C304 29.9998 320.124 42.4562 301 57.9999C274.029 79.9218 241.425 76.4982 212 57.9999C194.134 46.7685 196.523 26.111 178 15.9999C154.691 3.27618 132.442 1.80198 110 15.9999C93.2491 26.5976 96.8439 45.4514 81.5 57.9999C68.3142 68.7834 58.6968 73.1286 42 76.4999C28.0278 79.3211 5.5 76.4999 5.5 76.4999" stroke="#2E3440" stroke-width="10" stroke-linecap="round"/>
</svg>
