<svg width="527" height="196" viewBox="0 0 527 196" fill="none" xmlns="http://www.w3.org/2000/svg">
<path id = "frontLine" d="M287.5 62.5V5M287.5 62.5C287.5 62.5 260.243 89.2633 239.5 98.5C226.126 104.455 209 97.3235 193 71.5M287.5 62.5C287.5 62.5 342.092 30.4304 358 37C372.221 42.8732 374.947 75.9236 397.25 91.5M496.489 191C496.489 191 484.196 140.77 496.489 118C511.798 89.6433 527.257 55.0202 519.5 42.5C509.489 26.3423 471.712 107.826 452.5 106C428.392 103.708 409.813 71.2242 397.25 91.5M193 71.5C193 98.0557 209 148.944 209 175.5M193 71.5C180.871 51.9237 126.858 17.5391 103.5 19C83.3865 20.258 18.9445 81.6427 8.49993 98.5C-5.48661 121.074 41.4999 141 74.5 146C107.5 151 69.5 191 69.5 191M397.25 91.5C397.25 118.056 327.577 111.387 320.5 141C317.414 153.914 341.5 180 341.5 180" stroke="#2E3440" stroke-width="10" stroke-linecap="round"/>
</svg>
