<svg width="679" height="784" viewBox="0 0 679 784" fill="none" xmlns="http://www.w3.org/2000/svg">
<path d="M495.714 694.607C535.144 626.064 532.244 583.565 598.137 547.719C636.207 527.008 660.852 502.421 665.593 459.006C668.549 431.935 662.871 415.174 650.564 390.953C638.198 366.617 611.996 365.009 604.311 338.775C592.899 299.814 645.669 283.581 644.547 242.959C643.083 189.965 613.464 158.359 568.472 131.109C527.008 105.996 521.75 83.7332 475.5 69.5C424.813 53.9013 386.91 14.9655 334.199 9.46648C271.193 2.89357 250.725 63.2184 192.572 88.631C148.985 107.679 94.7293 125.242 62.2379 160.243C17.9971 207.9 7.96467 256.925 17.992 321.449C26.2262 374.435 76.3648 388.644 83.4256 441.803C88.8801 482.869 61.6134 505.796 67.8565 546.746C74.176 588.198 165.53 602.838 194.566 632.797C247.678 687.596 187.126 754.196 276.188 767.908C370.359 782.405 447.829 777.85 495.714 694.607Z" fill="#F7139F" fill-opacity="0.16"/>
<rect x="285" y="67" width="110" height="110" rx="30" fill="#F7139F"/>
<path d="M332.465 90C330.667 90.0087 328.918 90.5939 327.477 91.6696C326.129 92.6757 325.116 94.0612 324.564 95.6449C324.497 95.8377 324.312 95.9694 324.108 95.9694C321.892 95.9719 319.768 96.8532 318.202 98.4199C316.635 99.9866 315.754 102.111 315.751 104.326C315.751 104.53 315.619 104.715 315.426 104.781C313.529 105.432 311.924 106.746 310.912 108.487C310.663 108.916 310.454 109.364 310.286 109.824C309.326 112.458 307.894 115.32 306.36 117.666C305.473 119.025 305 120.614 305 122.237C305 123.86 305.473 125.448 306.36 126.807C307.894 129.155 309.328 132.015 310.29 134.649C310.458 135.109 310.667 135.557 310.916 135.985C311.928 137.726 313.531 139.04 315.427 139.692C315.623 139.759 315.752 139.94 315.752 140.147C315.755 142.363 316.636 144.487 318.203 146.054C319.769 147.621 321.894 148.502 324.109 148.504C324.313 148.504 324.498 148.636 324.565 148.829C325.179 150.609 326.377 152.134 327.971 153.15C329.662 154.229 331.685 154.664 333.671 154.374C335.656 154.085 337.471 153.091 338.784 151.574C340.097 150.057 340.82 148.118 340.822 146.112V98.3571C340.82 96.1415 339.938 94.0173 338.372 92.4506C336.805 90.8839 334.681 90.0026 332.465 90ZM338.434 111.69C338.387 113.193 337.81 114.63 336.807 115.749C336.223 116.281 335.537 116.691 334.791 116.953C334.045 117.214 333.254 117.324 332.465 117.274C332.149 117.274 331.845 117.4 331.621 117.624C331.397 117.848 331.271 118.151 331.271 118.468C331.271 118.784 331.397 119.088 331.621 119.312C331.845 119.536 332.149 119.662 332.465 119.662C333.554 119.715 334.643 119.551 335.668 119.179C336.837 118.754 338.434 119.51 338.434 120.754V133.187C338.434 134.431 336.837 135.186 335.668 134.762C334.643 134.39 333.554 134.226 332.465 134.279C332.149 134.279 331.845 134.405 331.621 134.629C331.397 134.853 331.271 135.157 331.271 135.473C331.271 135.79 331.397 136.094 331.621 136.317C331.845 136.541 332.149 136.667 332.465 136.667C333.254 136.617 334.045 136.725 334.791 136.987C335.537 137.248 336.222 137.657 336.807 138.188C337.812 139.308 338.388 140.747 338.434 142.251V146.112C338.428 147.613 337.857 149.057 336.834 150.155C335.812 151.254 334.412 151.927 332.916 152.04C331.419 152.153 329.934 151.699 328.758 150.766C327.581 149.834 326.799 148.493 326.567 147.01C326.365 145.455 326.716 143.879 327.558 142.556C327.721 142.285 327.77 141.96 327.693 141.653C327.617 141.345 327.421 141.081 327.149 140.918C326.878 140.755 326.553 140.706 326.245 140.783C325.938 140.86 325.674 141.055 325.511 141.327C324.624 142.762 324.144 144.412 324.121 146.099C324.121 146.106 324.115 146.112 324.108 146.112C322.525 146.11 321.008 145.48 319.889 144.361C319.156 143.628 318.633 142.723 318.359 141.742C318.069 140.703 317.907 139.532 318.389 138.568C318.632 138.082 319.02 137.682 319.499 137.424C319.775 137.287 319.988 137.048 320.092 136.757C320.196 136.467 320.183 136.147 320.057 135.865C319.93 135.584 319.7 135.362 319.413 135.247C319.127 135.132 318.807 135.132 318.521 135.248C316.843 135.984 314.839 137.095 313.632 135.717C313.376 135.425 313.148 135.106 312.952 134.764C312.386 133.777 312.121 132.654 312.178 131.532C312.207 130.957 312.752 130.591 313.327 130.594C314.155 130.591 314.977 130.47 315.77 130.236C316.074 130.147 316.33 129.941 316.482 129.663C316.635 129.386 316.67 129.059 316.581 128.755C316.493 128.451 316.287 128.195 316.009 128.042C315.731 127.89 315.404 127.855 315.1 127.944C314.208 128.218 313.263 128.279 312.342 128.122C311.421 127.965 310.55 127.595 309.799 127.04C309.047 126.485 308.437 125.761 308.016 124.927C307.595 124.093 307.376 123.172 307.376 122.238C307.376 121.304 307.595 120.383 308.016 119.549C308.437 118.715 309.047 117.991 309.799 117.437C310.55 116.882 311.421 116.511 312.342 116.354C313.263 116.197 314.208 116.258 315.1 116.533C315.404 116.621 315.731 116.586 316.009 116.434C316.287 116.282 316.493 116.025 316.581 115.721C316.67 115.417 316.635 115.091 316.482 114.813C316.33 114.535 316.074 114.329 315.77 114.24C315.059 114.031 314.326 113.914 313.589 113.892C312.864 113.871 312.174 113.409 312.169 112.684C312.176 111.427 312.577 110.205 313.316 109.188C313.42 109.045 313.53 108.907 313.646 108.774C314.845 107.398 316.849 108.489 318.521 109.221C318.664 109.286 318.818 109.321 318.975 109.325C319.132 109.33 319.288 109.304 319.434 109.248C319.581 109.192 319.715 109.108 319.829 109C319.943 108.893 320.035 108.764 320.099 108.621C320.163 108.478 320.199 108.323 320.203 108.167C320.208 108.01 320.181 107.854 320.126 107.707C320.07 107.561 319.986 107.427 319.878 107.313C319.771 107.198 319.642 107.107 319.499 107.043C319.161 106.894 318.868 106.662 318.646 106.368C318.424 106.073 318.282 105.727 318.233 105.362C318.167 105.021 318.135 104.674 318.139 104.326C318.141 102.744 318.77 101.227 319.889 100.108C321.008 98.9885 322.525 98.359 324.108 98.3571C324.115 98.3571 324.121 98.363 324.121 98.3703C324.144 100.057 324.624 101.706 325.511 103.141C325.674 103.412 325.938 103.608 326.245 103.685C326.553 103.761 326.878 103.713 327.149 103.55C327.421 103.387 327.617 103.123 327.693 102.815C327.77 102.508 327.721 102.183 327.558 101.911C326.716 100.589 326.365 99.0128 326.567 97.4581C326.799 95.975 327.581 94.6336 328.758 93.7012C329.935 92.7689 331.419 92.3142 332.916 92.4276C334.413 92.541 335.812 93.2142 336.835 94.3131C337.858 95.412 338.429 96.8559 338.434 98.3571V111.69ZM376.638 117.996V126.473C376.642 127.255 376.354 128.01 375.829 128.59C375.305 129.17 374.583 129.533 373.804 129.608L368.944 130.096C368.061 130.185 367.297 130.752 366.956 131.571C366.613 132.395 366.751 133.34 367.316 134.03L370.41 137.811C370.905 138.414 371.158 139.179 371.119 139.959C371.08 140.738 370.752 141.475 370.2 142.025L364.195 148.03C363.644 148.583 362.908 148.911 362.129 148.95C361.35 148.99 360.584 148.737 359.981 148.243L356.21 145.15C355.518 144.583 354.571 144.443 353.745 144.786C352.921 145.127 352.352 145.894 352.263 146.781L351.775 151.639C351.7 152.417 351.337 153.138 350.757 153.662C350.177 154.185 349.423 154.473 348.642 154.469H344.404C344.087 154.469 343.784 154.343 343.56 154.119C343.336 153.895 343.21 153.592 343.21 153.275C343.21 152.958 343.336 152.655 343.56 152.431C343.784 152.207 344.087 152.081 344.404 152.081H348.642C348.829 152.081 349.01 152.012 349.15 151.887C349.289 151.763 349.379 151.591 349.4 151.405L350.103 144.393C350.125 144.178 350.204 143.974 350.333 143.801C350.461 143.628 350.634 143.493 350.833 143.41L354.835 141.749C355.034 141.667 355.253 141.64 355.467 141.672C355.681 141.703 355.882 141.793 356.049 141.93L361.492 146.394C361.638 146.511 361.822 146.571 362.009 146.561C362.196 146.552 362.373 146.474 362.506 146.342L368.512 140.337C368.643 140.203 368.72 140.026 368.729 139.839C368.739 139.652 368.679 139.468 368.562 139.322L364.103 133.866C363.965 133.699 363.876 133.497 363.845 133.283C363.814 133.068 363.841 132.85 363.925 132.65L365.584 128.663C365.667 128.465 365.802 128.292 365.976 128.164C366.149 128.035 366.354 127.956 366.568 127.935L373.576 127.231C373.762 127.209 373.933 127.12 374.058 126.98C374.182 126.841 374.251 126.66 374.251 126.473V117.996C374.251 117.809 374.182 117.628 374.058 117.489C373.933 117.349 373.762 117.26 373.576 117.238L366.563 116.534C366.349 116.512 366.144 116.434 365.971 116.305C365.798 116.177 365.662 116.004 365.579 115.805L363.92 111.819C363.836 111.619 363.809 111.401 363.84 111.186C363.872 110.972 363.961 110.77 364.098 110.603L368.563 105.147C368.68 105 368.739 104.816 368.73 104.63C368.72 104.443 368.643 104.266 368.512 104.132L362.506 98.1267C362.372 97.9958 362.195 97.9184 362.008 97.9092C361.821 97.9 361.637 97.9595 361.49 98.0766L356.037 102.536C355.869 102.673 355.668 102.762 355.454 102.793C355.24 102.824 355.021 102.797 354.822 102.714L350.833 101.054C350.634 100.971 350.461 100.836 350.333 100.663C350.204 100.49 350.125 100.286 350.103 100.072L349.4 93.0635C349.379 92.8776 349.289 92.706 349.15 92.5815C349.01 92.4569 348.829 92.388 348.642 92.3878H344.404C344.087 92.3878 343.784 92.262 343.56 92.0381C343.336 91.8142 343.21 91.5106 343.21 91.1939C343.21 90.8773 343.336 90.5736 343.56 90.3497C343.784 90.1258 344.087 90 344.404 90H348.642C349.424 89.9957 350.179 90.2841 350.759 90.8086C351.339 91.3332 351.702 92.0558 351.776 92.8343L352.264 97.6935C352.353 98.5773 352.92 99.341 353.74 99.6822C354.564 100.025 355.509 99.8855 356.199 99.3202L359.973 96.2273C360.576 95.7324 361.342 95.4799 362.122 95.5189C362.901 95.558 363.638 95.8858 364.189 96.4386L370.194 102.444C370.747 102.994 371.075 103.73 371.114 104.509C371.154 105.289 370.901 106.054 370.405 106.657L367.31 110.439C366.745 111.129 366.607 112.074 366.95 112.898C367.291 113.717 368.055 114.284 368.938 114.373L373.803 114.862C374.582 114.936 375.304 115.299 375.829 115.879C376.354 116.459 376.643 117.214 376.638 117.996ZM355.149 122.234C355.145 119.386 354.012 116.655 351.998 114.64C349.984 112.626 347.253 111.493 344.404 111.49C344.087 111.49 343.784 111.364 343.56 111.14C343.336 110.916 343.21 110.612 343.21 110.296C343.21 109.979 343.336 109.675 343.56 109.452C343.784 109.228 344.087 109.102 344.404 109.102C347.887 109.102 351.227 110.486 353.69 112.948C356.153 115.411 357.536 118.752 357.536 122.234C357.536 125.717 356.153 129.058 353.69 131.521C351.227 133.983 347.887 135.367 344.404 135.367C344.087 135.367 343.784 135.241 343.56 135.017C343.336 134.793 343.21 134.49 343.21 134.173C343.21 133.857 343.336 133.553 343.56 133.329C343.784 133.105 344.087 132.979 344.404 132.979C347.253 132.976 349.984 131.843 351.998 129.829C354.012 127.814 355.145 125.083 355.149 122.234ZM324.697 117.326C324.279 117.781 323.772 118.146 323.208 118.399C322.644 118.651 322.035 118.785 321.417 118.794C321.1 118.795 320.796 118.67 320.572 118.447C320.347 118.224 320.22 117.921 320.218 117.605C320.217 117.288 320.342 116.984 320.565 116.759C320.788 116.534 321.091 116.407 321.408 116.406C321.631 116.4 321.851 116.36 322.059 116.288C322.67 116.078 323.123 115.514 323.216 114.874C323.263 114.552 323.241 114.224 323.151 113.911C323.097 113.599 323.169 113.278 323.352 113.019C323.534 112.761 323.812 112.585 324.124 112.531C324.436 112.477 324.757 112.55 325.016 112.732C325.274 112.915 325.45 113.193 325.504 113.505C325.665 114.162 325.676 114.846 325.537 115.508C325.397 116.17 325.11 116.791 324.697 117.326ZM334.899 106.637C334.957 107.252 334.888 107.872 334.697 108.46C334.506 109.047 334.197 109.59 333.789 110.053C333.577 110.285 333.282 110.423 332.968 110.438C332.654 110.453 332.347 110.344 332.114 110.134C331.88 109.924 331.738 109.631 331.719 109.318C331.7 109.004 331.805 108.696 332.011 108.46C332.158 108.29 332.275 108.1 332.361 107.897C332.615 107.303 332.499 106.59 332.088 106.092C331.88 105.841 331.622 105.637 331.33 105.494C331.192 105.413 331.073 105.305 330.978 105.176C330.883 105.048 330.815 104.902 330.778 104.746C330.74 104.591 330.735 104.43 330.761 104.272C330.787 104.115 330.844 103.964 330.929 103.829C331.014 103.694 331.126 103.578 331.257 103.487C331.388 103.396 331.536 103.332 331.692 103.299C331.849 103.266 332.01 103.265 332.167 103.295C332.323 103.326 332.472 103.387 332.605 103.476C333.2 103.797 333.716 104.247 334.113 104.794C334.51 105.342 334.779 105.971 334.899 106.637ZM327.874 131.457C327.76 131.752 327.533 131.991 327.244 132.119C326.955 132.248 326.626 132.256 326.331 132.142C325.012 131.608 323.929 130.618 323.277 129.353C322.625 128.088 322.448 126.631 322.778 125.247C322.843 124.937 323.029 124.665 323.294 124.492C323.559 124.319 323.882 124.258 324.192 124.323C324.502 124.388 324.774 124.574 324.947 124.839C325.12 125.104 325.181 125.427 325.116 125.737C324.911 126.566 325.006 127.441 325.385 128.206C325.765 128.971 326.403 129.577 327.187 129.916C327.482 130.029 327.72 130.255 327.849 130.544C327.978 130.833 327.987 131.162 327.874 131.457Z" fill="black"/>
</svg>
